PathFileType	4	(X/Y/Z)	Patient4_TMGait_0pt3_01_left_04.trc.trc
DataRate	CameraRate	NumFrames	NumMarkers	Units	OrigDataRate	OrigDataStartFrame	OrigNumFrames
52.434456928839	52.434456928839	4	33	mm	52.434456928839	18	       141
Frame#	Time	Sacral			L.Shoulder			Chest			R.Shoulder			Neck			R.ASIS			L.ASIS			R.Thigh.Superior			R.Thigh.Lateral			R.Thigh.Inferior			R.Patella			L.Thigh.Superior			L.Thigh.Lateral			L.Thigh.Inferior			L.Patella			L.Shank.Superior			L.Shank.Lateral			L.Shank.Inferior			R.Shank.Superior			R.Shank.Lateral			R.Shank.Inferior			R.Heel			R.Midfoot.Superior			R.Midfoot.Lateral			R.Toe			L.Heel			L.Midfoot.Lateral			L.Midfoot.Superior			L.Toe			L.Elbow			L.Wrist			R.Elbow			R.Wrist			
		X1	Y1	Z1	X2	Y2	Z2	X3	Y3	Z3	X4	Y4	Z4	X5	Y5	Z5	X6	Y6	Z6	X7	Y7	Z7	X8	Y8	Z8	X9	Y9	Z9	X10	Y10	Z10	X11	Y11	Z11	X12	Y12	Z12	X13	Y13	Z13	X14	Y14	Z14	X15	Y15	Z15	X16	Y16	Z16	X17	Y17	Z17	X18	Y18	Z18	X19	Y19	Z19	X20	Y20	Z20	X21	Y21	Z21	X22	Y22	Z22	X23	Y23	Z23	X24	Y24	Z24	X25	Y25	Z25	X26	Y26	Z26	X27	Y27	Z27	X28	Y28	Z28	X29	Y29	Z29	X30	Y30	Z30	X31	Y31	Z31	X32	Y32	Z32	X33	Y33	Z33	

18	7.084214285714	833.221599683867	1000.565742445489	578.552896020156	979.885260464885	1426.804162150521	370.094058979539	1104.072156116757	1363.887416891615	517.499788176720	1043.169840638544	1441.320041307421	698.682903711189	987.409302530377	1492.404126533695	521.921568971084	1072.647578751091	939.808571025296	672.713780783726	1034.189892509165	961.080982519130	400.100935232582	1090.469437392131	731.143130428393	637.243606267780	1000.215152778315	624.572931751306	696.093877662245	1066.062786061388	569.565617666337	611.301881239907	1055.465360588756	480.764398670636	613.016197197058	1116.331365651648	775.484636712159	434.228458950069	1072.869413588379	648.342301379896	354.290554464378	1170.868950883424	588.275907808460	423.120083570979	1196.945057812916	518.633620224805	417.095727744675	1170.375959748197	445.724199064231	403.628028066706	1089.654858604938	327.097715125463	345.041693882963	1160.396177482682	214.875189693383	399.661069221800	1017.836173339866	394.855632061076	617.201898342957	937.159795089248	295.557879236242	673.711159444532	967.581028877942	200.435916065727	605.958040137483	820.180747359165	43.441307272388	566.707805748676	989.863980643055	96.529216866408	611.351905927957	899.148223165035	36.881497386894	644.938184278397	1107.815678387133	42.934087038692	646.408531718747	1052.946402152837	44.321260388133	429.351634776579	1129.245957973987	44.617217663397	351.594174772766	1206.840751188717	114.685123482576	377.315480011860	1337.768149220225	73.650835365936	352.996705677621	848.326511678446	1093.783409251987	289.626028371320	831.020793889335	834.815447629721	301.555998037326	1178.941133968286	1136.037039118405	827.958036342041	1412.205046607510	1212.801786819989	772.637885253711	
19	7.103285714286	833.561378649689	1001.414460385828	577.796247703011	978.745836619704	1426.962413149905	368.163798002374	1104.157426468907	1364.180792330824	514.628266024214	1044.676067421756	1441.946113960069	696.108726033553	987.421526723372	1492.658251099728	519.699674085340	1073.195149963352	939.737520545190	670.920906253423	1033.781721514930	961.232267003341	398.382680284975	1087.525755410582	730.297607620579	635.985438871425	995.498695752239	625.151198252985	695.536401844393	1059.885766934799	568.933822486815	610.759412872595	1048.003509242804	481.021750396555	612.599745165892	1114.804054772109	774.265107384860	431.678197952635	1068.513980852370	647.260395819475	352.445936108049	1166.580024660819	586.626099893270	420.247756519233	1192.060148436821	518.060182831587	415.122110835116	1167.291650758151	445.357957062219	401.957165080597	1089.808218975799	324.613741051989	343.223967710592	1162.943229342109	214.305671473972	398.624096265240	1010.893390409019	395.282402022777	616.971934833656	930.506411496811	295.865805260133	673.702141440309	961.232228719455	200.708424309412	605.969463793046	814.328771667791	43.354882212748	566.770017092014	984.013428979901	96.519141250587	611.419758232966	893.300682078718	36.810079639755	644.989859757675	1101.968562390134	43.006869473287	646.403377402697	1059.051113619902	42.235484986994	428.080624852877	1135.822437337446	43.358600089773	350.733642970454	1212.184730945888	114.535927243421	376.803001166837	1343.866387249141	75.202192966508	353.462277874512	843.557465661700	1095.413875953362	289.801317891070	825.615671109178	836.345096908704	302.066180607425	1184.614048987552	1139.029785418794	824.431862745163	1414.118040356801	1223.043457578718	765.693607069529	
20	7.122357142857	834.025839953636	1001.968251710459	576.571099835703	977.915478674570	1426.869376650501	365.925244101785	1104.314501101744	1364.272492516471	511.659088393640	1045.913559448064	1442.324517245500	693.332862625717	987.478347011075	1492.689247719234	517.226056347526	1073.826848547144	939.521923631679	669.011373938393	1033.704318736431	961.065407496237	396.536507183840	1084.918565786266	729.380605924901	634.682128055267	991.121707327532	625.614842996580	694.797838238199	1054.187856528131	568.228622309373	610.133698374511	1041.107232866572	481.145614895905	612.096141479514	1113.612281162967	772.677635906257	428.948053008153	1064.233556628747	645.796819816118	350.709170118160	1162.504673665074	584.673604154488	417.355213181643	1187.107776671981	516.852151258382	413.135223742799	1163.750399736352	444.369588110239	400.234179876805	1088.519483777094	322.168982504141	341.773890082062	1163.439418100706	213.397573244616	397.696250074989	1004.356470521857	395.595005647635	616.611781906807	924.127068808941	296.174580948731	673.596555801011	955.044489152008	200.919512686565	605.924212665513	808.484176855844	43.279269983400	566.810052827011	978.170741987019	96.504406351571	611.474028338845	887.460813509135	36.736415657637	645.026014107574	1096.126741599719	43.053041245483	646.398838115524	1062.036253301123	40.747258464811	427.350740914460	1138.900719376064	42.372093979663	350.056555826949	1214.644901749281	113.928672337894	376.269943196623	1346.604995256449	75.396961181510	353.184756509105	840.250503136306	1096.338523519343	289.503644619867	822.416270643724	837.038180431626	302.126445089609	1189.793074035221	1141.622141725901	820.703759462492	1415.777743368937	1231.992078603748	759.045242995065	
21	7.141428571429	834.618753067744	1002.230106944677	574.913603742631	977.412889363616	1426.521200801834	363.372100697064	1104.565567012954	1364.152663808780	508.587103025704	1046.920855337635	1442.459323016126	690.356529239145	987.607561056829	1492.500155535793	514.488159782406	1074.542360894303	939.160657865534	666.978675157508	1033.915010833134	960.591489314629	394.562989552195	1082.737741447635	728.399719068301	633.307415292882	987.233363048777	625.930223545650	693.846561694790	1049.143432396429	567.448911804091	609.371591955532	1034.956216407633	481.094540657123	611.449583796775	1112.712333939013	770.786858106576	426.081354006174	1060.126982581583	644.035297466184	349.074781774247	1158.733316408340	582.523192293230	414.485112103524	1182.232468936732	515.128497593767	411.150398207626	1159.937845397879	442.847140688152	398.483491055014	1086.044638310684	319.727311433794	340.651934521149	1162.213727163327	212.114271191252	396.891673061752	998.368251563664	395.752812373424	616.085569915302	918.132725296946	296.475615641689	673.369277266974	949.080986458664	201.050457968367	605.805668297725	802.655844480715	43.222446934947	566.832780974250	972.345390921891	96.485398290375	611.508839750583	881.636060140996	36.664816811213	645.044129893033	1090.296444038866	43.065436001368	646.397092045859	1062.270269558047	39.682945246910	427.104450003310	1138.935299757653	41.491045651426	349.574308713787	1214.628831603531	112.786936426109	375.788009616424	1346.492666698305	74.227633941291	352.377838866868	838.344757831379	1096.547245370385	288.668605315433	821.391327327710	836.918303149381	301.660851668408	1194.456095314059	1143.772781155361	816.804670637436	1417.283682621550	1239.569534553588	752.737638039687	
